<svg width="100" height="100" viewBox="0 0 100 100" fill="none" xmlns="http://www.w3.org/2000/svg">
<path d="M83.5898 46.8711C82.7258 46.8711 82.0273 46.1727 82.0273 45.3086V40.6211C82.0273 39.757 82.7258 39.0586 83.5898 39.0586C84.4539 39.0586 85.1523 39.757 85.1523 40.6211V45.3086C85.1523 46.1727 84.4539 46.8711 83.5898 46.8711Z" fill="#CCD1D9"/>
<path d="M83.5938 96.875C82.7297 96.875 82.0312 96.1766 82.0312 95.3125V89.0625C82.0312 88.1984 82.7297 87.5 83.5938 87.5C84.4578 87.5 85.1562 88.1984 85.1562 89.0625V95.3125C85.1562 96.1766 84.4578 96.875 83.5938 96.875Z" fill="#204F7F"/>
<path d="M85.9375 84.375V89.0625H83.5938H81.25V84.375H85.9375Z" fill="#204F7F"/>
<path d="M85.9352 90.6242H81.2461C80.382 90.6242 79.6836 89.9258 79.6836 89.0617V84.3711C79.6836 83.507 80.382 82.8086 81.2461 82.8086C82.1102 82.8086 82.8086 83.507 82.8086 84.3711V87.4992H84.3727V84.3711C84.3727 83.507 85.0711 82.8086 85.9352 82.8086C86.7992 82.8086 87.4977 83.507 87.4977 84.3711V89.0617C87.4977 89.9258 86.7992 90.6242 85.9352 90.6242Z" fill="#204F7F"/>
<path d="M35.9375 9.375C35.0734 9.375 34.375 8.67656 34.375 7.8125V4.6875C34.375 3.82344 35.0734 3.125 35.9375 3.125C36.8016 3.125 37.5 3.82344 37.5 4.6875V7.8125C37.5 8.67656 36.8016 9.375 35.9375 9.375Z" fill="#144272"/>
<path d="M83.5938 45.3125H81.25V60.9375V65.625H85.9375V60.9375V45.3125H83.5938Z" fill="#E6E9ED"/>
<path d="M87.5 65.625V84.375H85.9375H81.25H79.6875V65.625H81.25H85.9375H87.5Z" fill="#204F7F"/>
<path d="M59.375 32.2812C61.6391 33.4375 62.5 34.375 62.5 34.375H59.375H12.5H9.375C9.375 34.375 10.2344 33.4375 12.5 32.2812C16.0609 30.4687 23.1562 28.125 35.9375 28.125C48.7188 28.125 55.8125 30.4687 59.375 32.2812Z" fill="#05294F"/>
<path d="M35.9375 28.125C23.1562 28.125 16.0609 30.4688 12.5 32.2812V28.125C12.5 15.1891 23 4.6875 35.9375 4.6875C48.8906 4.6875 59.375 15.1891 59.375 28.125V32.2812C55.8125 30.4688 48.7188 28.125 35.9375 28.125Z" fill="#204F7F"/>
<path d="M35.9375 4.6875C35.1469 4.6875 34.3656 4.72969 33.5938 4.80625C45.4438 5.98438 54.6844 15.9797 54.6844 28.125V30.4406C56.6703 31.0453 58.2141 31.6922 59.375 32.2812V28.125C59.375 15.1891 48.8906 4.6875 35.9375 4.6875Z" fill="#204F7F"/>
<path d="M59.375 34.375V40.625C59.375 49.625 54.3125 57.4375 46.875 61.3594C43.6094 63.0797 39.8891 64.0625 35.9375 64.0625C31.9844 64.0625 28.2656 63.0797 25 61.3594C17.5625 57.4375 12.5 49.625 12.5 40.625V34.375H59.375Z" fill="#EAC6BB"/>
<path d="M54.6859 34.375V40.625C54.6859 49.625 49.6234 57.4375 42.1859 61.3594C39.5766 62.7359 36.6719 63.6297 33.5938 63.9375C34.3656 64.0141 35.1453 64.0625 35.9391 64.0625C39.8906 64.0625 43.6109 63.0797 46.8766 61.3594C54.3141 57.4375 59.3766 49.625 59.3766 40.625V34.375H54.6859Z" fill="#D3B1A9"/>
<path d="M46.875 61.3594V70.3125L40.625 73.4375L35.9375 71.875L31.25 73.4375L25 70.3281V61.3594C28.2656 63.0812 31.9844 64.0625 35.9375 64.0625C39.8891 64.0625 43.6094 63.0797 46.875 61.3594Z" fill="#FFCE54"/>
<path d="M70.3125 82.8281V95.3125H1.5625V82.8281C1.5625 75.9062 7.15625 70.3125 14.0625 70.3125L25 70.3281L31.25 73.4375L35.9375 71.875L40.625 73.4375L46.875 70.3125L57.8125 70.3281C64.7188 70.3281 70.3125 75.9062 70.3125 82.8281Z" fill="#FFC42E"/>
<path d="M35.9922 79.6875C35.1281 79.6875 34.4219 78.9891 34.4219 78.125C34.4219 77.2609 35.1125 76.5625 35.975 76.5625H35.9922C36.8547 76.5625 37.5547 77.2609 37.5547 78.125C37.5547 78.9891 36.8547 79.6875 35.9922 79.6875Z" fill="#204F7F"/>
<path d="M35.9922 85.9375C35.1281 85.9375 34.4219 85.2391 34.4219 84.375C34.4219 83.5109 35.1125 82.8125 35.975 82.8125H35.9922C36.8547 82.8125 37.5547 83.5109 37.5547 84.375C37.5547 85.2391 36.8547 85.9375 35.9922 85.9375Z" fill="#204F7F"/>
<path d="M35.9922 92.1875C35.1281 92.1875 34.4219 91.4891 34.4219 90.625C34.4219 89.7609 35.1125 89.0625 35.975 89.0625H35.9922C36.8547 89.0625 37.5547 89.7609 37.5547 90.625C37.5547 91.4891 36.8547 92.1875 35.9922 92.1875Z" fill="#204F7F"/>
<path d="M32.8115 18.7476C32.485 18.7476 32.1568 18.6476 31.8756 18.4366C31.185 17.9179 31.0443 16.9382 31.5631 16.2491L36.2506 9.99914C36.7678 9.31007 37.7475 9.16945 38.4365 9.6882C39.1272 10.2038 39.2678 11.1835 38.749 11.8726L34.0615 18.1226C33.7553 18.5335 33.2881 18.7476 32.8115 18.7476Z" fill="#FFCE54"/>
<path d="M34.374 24.9965C34.0475 24.9965 33.7193 24.8965 33.4381 24.6856C32.7475 24.1669 32.6068 23.1872 33.1256 22.4981L37.8131 16.2481C38.3303 15.5559 39.31 15.4184 39.999 15.9372C40.6897 16.4528 40.8303 17.4325 40.3115 18.1215L35.624 24.3715C35.3178 24.7825 34.8506 24.9965 34.374 24.9965Z" fill="#FFCE54"/>
<path d="M39.0625 18.7461H32.8125C31.9484 18.7461 31.25 18.0477 31.25 17.1836C31.25 16.3195 31.9484 15.6211 32.8125 15.6211H39.0625C39.9266 15.6211 40.625 16.3195 40.625 17.1836C40.625 18.0477 39.9266 18.7461 39.0625 18.7461Z" fill="#FFCE54"/>
<path d="M87.5 85.9336H79.6875C78.8234 85.9336 78.125 85.2352 78.125 84.3711V65.6211C78.125 64.757 78.8234 64.0586 79.6875 64.0586C80.5516 64.0586 81.25 64.757 81.25 65.6211V82.8086H85.9375V65.6211C85.9375 64.757 86.6359 64.0586 87.5 64.0586C88.3641 64.0586 89.0625 64.757 89.0625 65.6211V84.3711C89.0625 85.2352 88.3641 85.9336 87.5 85.9336Z" fill="#204F7F"/>
<path d="M85.9352 67.193C85.0711 67.193 84.3727 66.4945 84.3727 65.6305V46.8711H82.8086V65.6305C82.8086 66.4945 82.1102 67.193 81.2461 67.193C80.382 67.193 79.6836 66.4945 79.6836 65.6305V45.3086C79.6836 44.4445 80.382 43.7461 81.2461 43.7461H85.9352C86.7992 43.7461 87.4977 44.4445 87.4977 45.3086V65.6305C87.4977 66.4945 86.7992 67.193 85.9352 67.193Z" fill="#E6E9ED"/>
<path d="M89.0586 67.1836H78.1211C77.257 67.1836 76.5586 66.4852 76.5586 65.6211C76.5586 64.757 77.257 64.0586 78.1211 64.0586H89.0586C89.9227 64.0586 90.6211 64.757 90.6211 65.6211C90.6211 66.4852 89.9227 67.1836 89.0586 67.1836Z" fill="#204F7F"/>
<path d="M95.3125 46.8719C94.4484 46.8719 93.75 46.1734 93.75 45.3094V39.0625C93.75 38.1984 94.4484 37.5 95.3125 37.5C96.1766 37.5 96.875 38.1984 96.875 39.0625V45.3094C96.875 46.1734 96.1766 46.8719 95.3125 46.8719Z" fill="#AC92EC"/>
<path d="M96.875 43.7539H93.75C92.8859 43.7539 92.1875 43.0555 92.1875 42.1914C92.1875 41.3273 92.8859 40.6289 93.75 40.6289H96.875C97.7391 40.6289 98.4375 41.3273 98.4375 42.1914C98.4375 43.0555 97.7391 43.7539 96.875 43.7539Z" fill="#AC92EC"/>
<path d="M71.918 56.2598C71.0539 56.2598 70.3477 55.5613 70.3477 54.6973C70.3477 53.8332 71.0383 53.1348 71.9008 53.1348H71.918C72.7805 53.1348 73.4805 53.8332 73.4805 54.6973C73.4805 55.5613 72.7805 56.2598 71.918 56.2598Z" fill="#5D9CEC"/>
<path d="M93.8164 60.9492C92.9523 60.9492 92.2461 60.2508 92.2461 59.3867C92.2461 58.5227 92.9367 57.8242 93.7992 57.8242H93.8164C94.6789 57.8242 95.3789 58.5227 95.3789 59.3867C95.3789 60.2508 94.6789 60.9492 93.8164 60.9492Z" fill="#FFCE54"/>
<path d="M83.5977 62.5117C82.7336 62.5117 82.0273 61.8133 82.0273 60.9492C82.0273 60.0852 82.718 59.3867 83.5805 59.3867H83.5977C84.4602 59.3867 85.1602 60.0852 85.1602 60.9492C85.1602 61.8133 84.4602 62.5117 83.5977 62.5117Z" fill="#CCD1D9"/>
<path d="M75.0469 39.0527C74.1828 39.0527 73.4766 38.3543 73.4766 37.4902C73.4766 36.6262 74.1672 35.9277 75.0297 35.9277H75.0469C75.9094 35.9277 76.6094 36.6262 76.6094 37.4902C76.6094 38.3543 75.9094 39.0527 75.0469 39.0527Z" fill="#FFCE54"/>
</svg>
