<svg width="40" height="40" viewBox="0 0 40 40" fill="none" xmlns="http://www.w3.org/2000/svg">
<path d="M2.29688 28.457V36.4784C2.29688 36.947 2.67668 37.3267 3.14513 37.3267H18.5132C18.3801 37.043 18.3054 36.7268 18.3054 36.3933V28.457H2.29688Z" fill="white"/>
<path d="M1.27238 27.1396H2.29799H18.3064V26.4087V25.3731C18.3064 25.3633 18.3067 25.3537 18.3068 25.344C18.3113 24.6986 18.468 24.0886 18.7427 23.5484C18.8613 23.3153 19.0017 23.0951 19.1614 22.8907C19.3513 22.6477 19.5685 22.427 19.808 22.233C20.5019 21.6712 21.385 21.334 22.3454 21.334H23.302V19.497C23.302 18.1039 22.1727 16.9746 20.7796 16.9746H18.4975C18.052 16.9746 17.665 17.2812 17.5631 17.7149L16.5023 22.2331L16.3478 22.8908L16.2385 23.3563C16.2232 23.4216 16.2052 23.4856 16.1846 23.5484H15.4812C15.4734 23.3283 15.451 23.1087 15.4143 22.8907C15.408 22.8529 15.4013 22.8153 15.3941 22.7777L15.2531 22.233L14.423 19.0291L15.0855 17.567C15.2112 17.2894 15.0083 16.9746 14.7035 16.9746H13.2816C12.9769 16.9746 12.7739 17.2894 12.8997 17.567L13.5622 19.0291L12.7006 22.233L12.5698 22.7199C12.5584 22.7766 12.5483 22.8336 12.5389 22.8907C12.5029 23.1087 12.4812 23.3283 12.4741 23.5484H11.8006C11.7801 23.4856 11.762 23.4216 11.7467 23.3563L11.6374 22.8908L11.4829 22.233L10.4221 17.715C10.3202 17.2813 9.93331 16.9747 9.48776 16.9747H7.20563C5.81255 16.9747 4.68323 18.1041 4.68323 19.4971V22.2333V22.8909V23.5486H1.27238C0.569685 23.5486 0 24.1182 0 24.821V25.8675C0 26.57 0.569685 27.1396 1.27238 27.1396Z" fill="white"/>
<path d="M13.9932 15.6124C17.1197 15.6124 19.6543 13.0778 19.6543 9.95131V3.93412C19.6543 3.15412 18.9519 2.56221 18.1831 2.69428C16.5173 2.98044 12.7188 3.73848 10.3553 4.21536C9.17825 4.45283 8.33203 5.48714 8.33203 6.68788V9.95136C8.33207 13.0779 10.8666 15.6124 13.9932 15.6124Z" fill="white"/>
<path d="M22.3449 22.6074C21.9061 22.6074 21.4915 22.71 21.1229 22.8917C20.7953 23.0533 20.5047 23.2778 20.2661 23.5494C19.8441 24.0297 19.586 24.6571 19.5788 25.345C19.5788 25.3547 19.5781 25.3643 19.5781 25.374V26.4097V27.1406V27.7982V28.4559V36.3922C19.5781 36.9076 19.996 37.3255 20.5114 37.3255H34.6808H39.0661C39.5816 37.3255 39.9995 36.9076 39.9995 36.3922V25.374C39.9995 24.0353 39.0485 22.9186 37.7851 22.6627C37.6067 22.6265 37.422 22.6074 37.2329 22.6074H23.3015H22.3449Z" fill="white"/>
<path d="M29.7874 21.111C33.2166 21.111 35.9966 18.3311 35.9966 14.9018V11.3224C35.9966 10.0054 35.0683 8.87094 33.7774 8.61049C31.1851 8.08746 27.0188 7.25604 25.1917 6.94215C25.112 6.92845 25.033 6.92188 24.9552 6.92188C24.2098 6.92188 23.5781 7.52736 23.5781 8.30206V14.9018C23.5782 18.3311 26.3581 21.111 29.7874 21.111Z" fill="white"/>
</svg>
