<svg width="28" height="28" viewBox="0 0 28 28" fill="none" xmlns="http://www.w3.org/2000/svg">
<g clip-path="url(#clip0_98_16587)">
<path d="M26.5122 26.3343H3.11328V19.856C3.11328 18.3473 4.20779 17.0162 5.80519 16.5133L12.5202 14.4722C14.0288 13.9989 15.5966 13.9989 17.0461 14.4722L23.7611 16.5133C25.3585 17.0162 26.453 18.3473 26.453 19.856L26.5122 26.3343Z" fill="#204F7F"/>
<path d="M15.7734 22.459H19.6782V23.3168H15.7734V22.459Z" fill="#FFD551"/>
<path d="M12.3438 10.3906H17.2838V17.2831H12.3438V10.3906Z" fill="#EDBF9A"/>
<path d="M20.4202 6.57445C20.2723 3.02468 17.8466 0.865234 14.8293 0.865234C11.812 0.865234 9.35676 3.05426 9.20885 6.57445C8.76513 6.66319 8.41016 7.01817 8.41016 7.60979C8.41016 8.26058 8.85388 8.94096 9.38634 8.94096H9.41592C10.0963 11.9878 12.2853 14.6502 14.8293 14.6502C17.3733 14.6502 19.5328 12.0174 20.2131 8.94096H20.2723C20.8048 8.94096 21.2485 8.26058 21.2485 7.60979C21.2781 7.01817 20.8935 6.63361 20.4202 6.57445Z" fill="#FFD9B6"/>
<path d="M8.49898 22.459H8.32149C8.144 22.459 7.99609 22.5773 7.99609 22.7844V26.3046H8.85395V22.814C8.82437 22.6069 8.67647 22.459 8.49898 22.459Z" fill="#0E3864"/>
<path d="M21.3349 22.459H21.1574C20.9799 22.459 20.832 22.5773 20.832 22.7844V26.3046H21.6899V22.814C21.6603 22.6069 21.542 22.459 21.3349 22.459Z" fill="#0E3864"/>
<path d="M17.3129 14.9758L14.828 17.1944L12.3432 14.9758L11.9882 14.6504L9.35547 15.4491L13.2602 18.9693L14.828 17.2831L16.3663 18.9693L20.3302 15.4491L17.6678 14.6504L17.3129 14.9758Z" fill="#0E3864"/>
<path d="M11.5164 23.9386V22.4299C11.5164 22.2524 11.398 22.1341 11.2206 22.1341H10.5994C10.5106 21.7496 10.3331 21.3946 10.1556 21.0692L10.5994 20.6255C10.7177 20.5071 10.7177 20.3001 10.5994 20.1817L9.53442 19.1168C9.4161 18.9985 9.20903 18.9985 9.0907 19.1168L8.64698 19.5605C8.292 19.3535 7.93703 19.2056 7.55247 19.0872V18.4364C7.55247 18.259 7.43414 18.1406 7.25665 18.1406H5.71842C5.54093 18.1406 5.42261 18.259 5.42261 18.4364V19.0576C5.03805 19.1464 4.68307 19.3239 4.35768 19.5309L3.91396 19.0872C3.79563 18.9689 3.58856 18.9689 3.47023 19.0872L2.4053 20.1522C2.28698 20.2705 2.28698 20.4776 2.4053 20.5959L2.84903 21.0396C2.64196 21.3946 2.49405 21.7496 2.4053 22.1045H1.7841C1.60661 22.1045 1.48828 22.2229 1.48828 22.4003V23.909C1.48828 24.0865 1.60661 24.2048 1.7841 24.2048H2.37572C2.46447 24.5894 2.64196 24.9443 2.81944 25.2697L2.37572 25.7135C2.2574 25.8318 2.2574 26.0389 2.37572 26.1572L3.44065 27.2221C3.55898 27.3404 3.76605 27.3404 3.88437 27.2221L4.32809 26.7784C4.68307 26.9855 5.03805 27.1334 5.39302 27.2221V27.8433C5.39302 28.0208 5.51135 28.1391 5.68884 28.1391H7.19749C7.37498 28.1391 7.4933 28.0208 7.4933 27.8433V27.2221C7.87786 27.1334 8.23284 26.9559 8.55823 26.7784L9.00196 27.2221C9.12028 27.3404 9.32735 27.3404 9.44568 27.2221L10.5106 26.1572C10.6289 26.0389 10.6289 25.8318 10.5106 25.7135L10.0669 25.2697C10.274 24.9148 10.4219 24.5598 10.5106 24.2048H11.1614C11.3389 24.2344 11.5164 24.1161 11.5164 23.9386ZM6.63544 25.5064C5.21554 25.5951 4.06186 24.4415 4.15061 23.0216C4.20977 21.8679 5.15637 20.9213 6.33963 20.8325C7.75954 20.7438 8.91321 21.8975 8.82447 23.3174C8.73572 24.5006 7.78912 25.4472 6.63544 25.5064Z" fill="#FFD551"/>
<path d="M18.8232 0.776398L16.2201 0.0368634C15.3622 -0.199788 14.4452 -0.199788 13.5873 0.0368634L10.8658 0.80598C10.2446 0.983468 9.8009 1.51593 9.71215 2.16672L9.17969 5.92356L14.6227 6.24896H15.0368L20.4798 5.92356L19.9473 2.13714C19.8882 1.48635 19.4149 0.953887 18.8232 0.776398Z" fill="#FFD551"/>
<path d="M18.9415 8.14243L16.3975 7.69871C15.3622 7.52122 14.2973 7.52122 13.2619 7.69871L10.7475 8.14243C10.215 8.14243 9.68257 7.84662 9.38676 7.37332L9.17969 5.92383L14.4748 6.24922C14.7114 6.2788 14.9481 6.2788 15.1847 6.24922L20.4798 5.92383L20.2727 7.37332C20.0065 7.84662 19.5036 8.14243 18.9415 8.14243Z" fill="#FFD551"/>
<path d="M15.951 5.98263C15.2411 5.92347 14.5311 5.92347 13.8212 5.98263L9.29521 6.57426L9.26562 6.21928L13.8507 5.62765C14.5607 5.59807 15.2706 5.59807 15.9806 5.62765L20.477 6.21928L20.4178 6.57426L15.951 5.98263Z" fill="#F9CD53"/>
</g>
<defs>
<clipPath id="clip0_98_16587">
<rect width="28" height="28" fill="white"/>
</clipPath>
</defs>
</svg>
